<svg xmlns="http://www.w3.org/2000/svg" xmlns:xlink="http://www.w3.org/1999/xlink" width="500" zoomAndPan="magnify" viewBox="0 0 375 374.999991" height="500" preserveAspectRatio="xMidYMid meet" version="1.0"><defs><g/><clipPath id="0ae874b7a0"><path d="M 56 30 L 198 30 L 198 46.078125 L 56 46.078125 Z M 56 30 " clip-rule="nonzero"/></clipPath><clipPath id="65cd5a136f"><rect x="0" width="142" y="0" height="17"/></clipPath><clipPath id="84ce91c0bf"><rect x="0" width="253" y="0" height="47"/></clipPath><clipPath id="4e9b930b14"><path d="M 87.265625 155 L 188 155 L 188 266.484375 L 87.265625 266.484375 Z M 87.265625 155 " clip-rule="nonzero"/></clipPath><clipPath id="f58b834e16"><path d="M 187 155 L 287.515625 155 L 287.515625 266.484375 L 187 266.484375 Z M 187 155 " clip-rule="nonzero"/></clipPath></defs><rect x="-37.5" width="450" fill="#ffffff" y="-37.499999" height="449.999989" fill-opacity="1"/><rect x="-37.5" width="450" fill="#ffffff" y="-37.499999" height="449.999989" fill-opacity="1"/><g transform="matrix(1, 0, 0, 1, 59, 270)"><g clip-path="url(#84ce91c0bf)"><g fill="#000000" fill-opacity="1"><g transform="translate(2.279909, 23.901307)"><g><path d="M -0.234375 5.171875 L -0.234375 4.15625 L -0.046875 4.15625 C 0.566406 4.15625 1.085938 4.035156 1.515625 3.796875 C 1.953125 3.554688 2.285156 3.144531 2.515625 2.5625 C 2.742188 1.988281 2.859375 1.195312 2.859375 0.1875 L 2.859375 -13 C 2.859375 -13.4375 2.773438 -13.757812 2.609375 -13.96875 C 2.453125 -14.175781 2.238281 -14.3125 1.96875 -14.375 C 1.707031 -14.4375 1.414062 -14.46875 1.09375 -14.46875 L 0.8125 -14.46875 L 0.8125 -15.375 L 7.078125 -15.375 L 7.078125 -14.46875 L 6.796875 -14.46875 C 6.484375 -14.46875 6.191406 -14.429688 5.921875 -14.359375 C 5.648438 -14.285156 5.429688 -14.140625 5.265625 -13.921875 C 5.109375 -13.710938 5.03125 -13.378906 5.03125 -12.921875 L 5.03125 0.171875 C 5.03125 1.128906 4.90625 1.929688 4.65625 2.578125 C 4.40625 3.222656 4.054688 3.734375 3.609375 4.109375 C 3.171875 4.484375 2.648438 4.753906 2.046875 4.921875 C 1.453125 5.085938 0.8125 5.171875 0.125 5.171875 Z M -0.234375 5.171875 "/></g></g></g><g fill="#000000" fill-opacity="1"><g transform="translate(13.305173, 23.901307)"><g><path d="M 0.8125 0 L 0.8125 -0.90625 L 1.09375 -0.90625 C 1.425781 -0.90625 1.722656 -0.941406 1.984375 -1.015625 C 2.253906 -1.085938 2.46875 -1.234375 2.625 -1.453125 C 2.78125 -1.671875 2.859375 -2.003906 2.859375 -2.453125 L 2.859375 -13 C 2.859375 -13.4375 2.773438 -13.757812 2.609375 -13.96875 C 2.453125 -14.175781 2.238281 -14.3125 1.96875 -14.375 C 1.707031 -14.4375 1.414062 -14.46875 1.09375 -14.46875 L 0.8125 -14.46875 L 0.8125 -15.375 L 4.765625 -15.375 L 12.46875 -3.46875 L 12.46875 -13 C 12.46875 -13.4375 12.382812 -13.757812 12.21875 -13.96875 C 12.050781 -14.175781 11.832031 -14.3125 11.5625 -14.375 C 11.300781 -14.4375 11.015625 -14.46875 10.703125 -14.46875 L 10.421875 -14.46875 L 10.421875 -15.375 L 15.828125 -15.375 L 15.828125 -14.46875 L 15.546875 -14.46875 C 15.234375 -14.46875 14.9375 -14.429688 14.65625 -14.359375 C 14.382812 -14.285156 14.171875 -14.140625 14.015625 -13.921875 C 13.859375 -13.710938 13.78125 -13.378906 13.78125 -12.921875 L 13.78125 0 L 12.25 0 L 4.171875 -12.40625 L 4.171875 -2.453125 C 4.171875 -2.003906 4.25 -1.671875 4.40625 -1.453125 C 4.570312 -1.234375 4.789062 -1.085938 5.0625 -1.015625 C 5.332031 -0.941406 5.625 -0.90625 5.9375 -0.90625 L 6.21875 -0.90625 L 6.21875 0 Z M 0.8125 0 "/></g></g></g><g fill="#000000" fill-opacity="1"><g transform="translate(33.071038, 23.901307)"><g><path d="M 7.796875 0.21875 C 6.660156 0.21875 5.6875 0.0546875 4.875 -0.265625 C 4.0625 -0.585938 3.441406 -1.109375 3.015625 -1.828125 C 2.585938 -2.546875 2.375 -3.488281 2.375 -4.65625 L 2.375 -13 C 2.375 -13.4375 2.289062 -13.757812 2.125 -13.96875 C 1.957031 -14.175781 1.738281 -14.3125 1.46875 -14.375 C 1.207031 -14.4375 0.921875 -14.46875 0.609375 -14.46875 L 0.328125 -14.46875 L 0.328125 -15.375 L 6.59375 -15.375 L 6.59375 -14.46875 L 6.3125 -14.46875 C 5.988281 -14.46875 5.691406 -14.429688 5.421875 -14.359375 C 5.148438 -14.285156 4.9375 -14.140625 4.78125 -13.921875 C 4.625 -13.710938 4.546875 -13.378906 4.546875 -12.921875 L 4.546875 -4.515625 C 4.546875 -3.265625 4.878906 -2.378906 5.546875 -1.859375 C 6.222656 -1.335938 7.085938 -1.078125 8.140625 -1.078125 C 8.972656 -1.078125 9.65625 -1.21875 10.1875 -1.5 C 10.71875 -1.789062 11.109375 -2.191406 11.359375 -2.703125 C 11.617188 -3.210938 11.75 -3.789062 11.75 -4.4375 L 11.75 -13 C 11.75 -13.4375 11.664062 -13.757812 11.5 -13.96875 C 11.34375 -14.175781 11.128906 -14.3125 10.859375 -14.375 C 10.597656 -14.4375 10.304688 -14.46875 9.984375 -14.46875 L 9.703125 -14.46875 L 9.703125 -15.375 L 15.109375 -15.375 L 15.109375 -14.46875 L 14.828125 -14.46875 C 14.515625 -14.46875 14.222656 -14.429688 13.953125 -14.359375 C 13.679688 -14.285156 13.460938 -14.140625 13.296875 -13.921875 C 13.140625 -13.710938 13.0625 -13.378906 13.0625 -12.921875 L 13.0625 -4.390625 C 13.0625 -3.441406 12.859375 -2.625 12.453125 -1.9375 C 12.054688 -1.25 11.46875 -0.71875 10.6875 -0.34375 C 9.90625 0.03125 8.941406 0.21875 7.796875 0.21875 Z M 7.796875 0.21875 "/></g></g></g><g fill="#000000" fill-opacity="1"><g transform="translate(51.846595, 23.901307)"><g/></g></g><g fill="#000000" fill-opacity="1"><g transform="translate(60.783591, 23.901307)"><g><path d="M 5.3125 0.21875 C 4.613281 0.21875 3.992188 0.144531 3.453125 0 C 2.910156 -0.144531 2.460938 -0.351562 2.109375 -0.625 C 1.753906 -0.894531 1.484375 -1.21875 1.296875 -1.59375 C 1.117188 -1.96875 1.03125 -2.378906 1.03125 -2.828125 C 1.03125 -3.109375 1.09375 -3.351562 1.21875 -3.5625 C 1.34375 -3.78125 1.519531 -3.953125 1.75 -4.078125 C 1.976562 -4.203125 2.253906 -4.265625 2.578125 -4.265625 C 2.609375 -3.671875 2.722656 -3.113281 2.921875 -2.59375 C 3.128906 -2.070312 3.441406 -1.648438 3.859375 -1.328125 C 4.273438 -1.003906 4.816406 -0.84375 5.484375 -0.84375 C 6.453125 -0.84375 7.207031 -1.070312 7.75 -1.53125 C 8.289062 -2 8.5625 -2.671875 8.5625 -3.546875 C 8.5625 -4.078125 8.457031 -4.523438 8.25 -4.890625 C 8.039062 -5.265625 7.695312 -5.609375 7.21875 -5.921875 C 6.738281 -6.234375 6.078125 -6.5625 5.234375 -6.90625 C 4.335938 -7.28125 3.59375 -7.679688 3 -8.109375 C 2.414062 -8.546875 1.976562 -9.050781 1.6875 -9.625 C 1.40625 -10.207031 1.265625 -10.894531 1.265625 -11.6875 C 1.265625 -12.507812 1.46875 -13.207031 1.875 -13.78125 C 2.289062 -14.363281 2.851562 -14.8125 3.5625 -15.125 C 4.269531 -15.4375 5.078125 -15.59375 5.984375 -15.59375 C 6.847656 -15.59375 7.578125 -15.476562 8.171875 -15.25 C 8.765625 -15.019531 9.21875 -14.71875 9.53125 -14.34375 C 9.851562 -13.976562 10.015625 -13.585938 10.015625 -13.171875 C 10.015625 -12.710938 9.859375 -12.363281 9.546875 -12.125 C 9.242188 -11.894531 8.832031 -11.78125 8.3125 -11.78125 C 8.3125 -12.21875 8.234375 -12.644531 8.078125 -13.0625 C 7.929688 -13.476562 7.679688 -13.820312 7.328125 -14.09375 C 6.972656 -14.375 6.5 -14.515625 5.90625 -14.515625 C 5.070312 -14.515625 4.421875 -14.289062 3.953125 -13.84375 C 3.492188 -13.394531 3.265625 -12.800781 3.265625 -12.0625 C 3.265625 -11.488281 3.367188 -11.003906 3.578125 -10.609375 C 3.785156 -10.210938 4.132812 -9.859375 4.625 -9.546875 C 5.113281 -9.242188 5.773438 -8.914062 6.609375 -8.5625 C 7.453125 -8.21875 8.171875 -7.84375 8.765625 -7.4375 C 9.367188 -7.03125 9.828125 -6.5625 10.140625 -6.03125 C 10.453125 -5.5 10.609375 -4.859375 10.609375 -4.109375 C 10.609375 -3.191406 10.394531 -2.410156 9.96875 -1.765625 C 9.539062 -1.128906 8.925781 -0.640625 8.125 -0.296875 C 7.332031 0.046875 6.394531 0.21875 5.3125 0.21875 Z M 5.3125 0.21875 "/></g></g></g><g fill="#000000" fill-opacity="1"><g transform="translate(75.834709, 23.901307)"><g><path d="M 3.234375 0 L 3.234375 -0.90625 L 3.71875 -0.90625 C 4.039062 -0.90625 4.332031 -0.9375 4.59375 -1 C 4.863281 -1.0625 5.078125 -1.195312 5.234375 -1.40625 C 5.398438 -1.613281 5.484375 -1.925781 5.484375 -2.34375 L 5.484375 -14.296875 L 3.421875 -14.296875 C 2.785156 -14.296875 2.347656 -14.117188 2.109375 -13.765625 C 1.867188 -13.410156 1.71875 -13 1.65625 -12.53125 L 1.546875 -11.609375 L 0.4375 -11.609375 L 0.53125 -15.375 L 12.65625 -15.375 L 12.765625 -11.609375 L 11.65625 -11.609375 L 11.546875 -12.53125 C 11.484375 -13 11.328125 -13.410156 11.078125 -13.765625 C 10.835938 -14.117188 10.394531 -14.296875 9.75 -14.296875 L 7.671875 -14.296875 L 7.671875 -2.453125 C 7.671875 -2.003906 7.75 -1.671875 7.90625 -1.453125 C 8.0625 -1.234375 8.273438 -1.085938 8.546875 -1.015625 C 8.816406 -0.941406 9.113281 -0.90625 9.4375 -0.90625 L 9.921875 -0.90625 L 9.921875 0 Z M 3.234375 0 "/></g></g></g><g fill="#000000" fill-opacity="1"><g transform="translate(92.371291, 23.901307)"><g><path d="M 7.796875 0.21875 C 6.660156 0.21875 5.6875 0.0546875 4.875 -0.265625 C 4.0625 -0.585938 3.441406 -1.109375 3.015625 -1.828125 C 2.585938 -2.546875 2.375 -3.488281 2.375 -4.65625 L 2.375 -13 C 2.375 -13.4375 2.289062 -13.757812 2.125 -13.96875 C 1.957031 -14.175781 1.738281 -14.3125 1.46875 -14.375 C 1.207031 -14.4375 0.921875 -14.46875 0.609375 -14.46875 L 0.328125 -14.46875 L 0.328125 -15.375 L 6.59375 -15.375 L 6.59375 -14.46875 L 6.3125 -14.46875 C 5.988281 -14.46875 5.691406 -14.429688 5.421875 -14.359375 C 5.148438 -14.285156 4.9375 -14.140625 4.78125 -13.921875 C 4.625 -13.710938 4.546875 -13.378906 4.546875 -12.921875 L 4.546875 -4.515625 C 4.546875 -3.265625 4.878906 -2.378906 5.546875 -1.859375 C 6.222656 -1.335938 7.085938 -1.078125 8.140625 -1.078125 C 8.972656 -1.078125 9.65625 -1.21875 10.1875 -1.5 C 10.71875 -1.789062 11.109375 -2.191406 11.359375 -2.703125 C 11.617188 -3.210938 11.75 -3.789062 11.75 -4.4375 L 11.75 -13 C 11.75 -13.4375 11.664062 -13.757812 11.5 -13.96875 C 11.34375 -14.175781 11.128906 -14.3125 10.859375 -14.375 C 10.597656 -14.4375 10.304688 -14.46875 9.984375 -14.46875 L 9.703125 -14.46875 L 9.703125 -15.375 L 15.109375 -15.375 L 15.109375 -14.46875 L 14.828125 -14.46875 C 14.515625 -14.46875 14.222656 -14.429688 13.953125 -14.359375 C 13.679688 -14.285156 13.460938 -14.140625 13.296875 -13.921875 C 13.140625 -13.710938 13.0625 -13.378906 13.0625 -12.921875 L 13.0625 -4.390625 C 13.0625 -3.441406 12.859375 -2.625 12.453125 -1.9375 C 12.054688 -1.25 11.46875 -0.71875 10.6875 -0.34375 C 9.90625 0.03125 8.941406 0.21875 7.796875 0.21875 Z M 7.796875 0.21875 "/></g></g></g><g fill="#000000" fill-opacity="1"><g transform="translate(111.146847, 23.901307)"><g><path d="M 0.8125 0 L 0.8125 -0.90625 L 1.09375 -0.90625 C 1.425781 -0.90625 1.722656 -0.941406 1.984375 -1.015625 C 2.253906 -1.085938 2.46875 -1.234375 2.625 -1.453125 C 2.78125 -1.671875 2.859375 -2.003906 2.859375 -2.453125 L 2.859375 -13 C 2.859375 -13.4375 2.773438 -13.757812 2.609375 -13.96875 C 2.453125 -14.175781 2.238281 -14.3125 1.96875 -14.375 C 1.707031 -14.4375 1.414062 -14.46875 1.09375 -14.46875 L 0.8125 -14.46875 L 0.8125 -15.375 L 7.40625 -15.375 C 8.882812 -15.375 10.144531 -15.078125 11.1875 -14.484375 C 12.238281 -13.890625 13.039062 -13.019531 13.59375 -11.875 C 14.144531 -10.726562 14.421875 -9.335938 14.421875 -7.703125 C 14.421875 -6.140625 14.160156 -4.78125 13.640625 -3.625 C 13.117188 -2.46875 12.335938 -1.570312 11.296875 -0.9375 C 10.265625 -0.3125 8.96875 0 7.40625 0 Z M 6.90625 -1.09375 C 8.0625 -1.09375 9.015625 -1.347656 9.765625 -1.859375 C 10.515625 -2.367188 11.078125 -3.113281 11.453125 -4.09375 C 11.835938 -5.082031 12.03125 -6.285156 12.03125 -7.703125 C 12.03125 -9.128906 11.835938 -10.328125 11.453125 -11.296875 C 11.078125 -12.273438 10.515625 -13.019531 9.765625 -13.53125 C 9.015625 -14.039062 8.070312 -14.296875 6.9375 -14.296875 L 5.03125 -14.296875 L 5.03125 -1.09375 Z M 6.90625 -1.09375 "/></g></g></g><g fill="#000000" fill-opacity="1"><g transform="translate(130.137687, 23.901307)"><g><path d="M 3.421875 0 L 3.421875 -0.90625 L 3.921875 -0.90625 C 4.234375 -0.90625 4.519531 -0.9375 4.78125 -1 C 5.050781 -1.0625 5.269531 -1.195312 5.4375 -1.40625 C 5.601562 -1.613281 5.6875 -1.925781 5.6875 -2.34375 L 5.6875 -6.421875 L 1.703125 -13.328125 C 1.546875 -13.597656 1.398438 -13.816406 1.265625 -13.984375 C 1.128906 -14.148438 0.972656 -14.269531 0.796875 -14.34375 C 0.617188 -14.425781 0.410156 -14.46875 0.171875 -14.46875 L -0.109375 -14.46875 L -0.109375 -15.375 L 5.8125 -15.375 L 5.8125 -14.46875 L 5.015625 -14.46875 C 4.628906 -14.46875 4.375 -14.398438 4.25 -14.265625 C 4.125 -14.128906 4.0625 -13.96875 4.0625 -13.78125 C 4.0625 -13.582031 4.101562 -13.378906 4.1875 -13.171875 C 4.28125 -12.972656 4.367188 -12.796875 4.453125 -12.640625 L 6.046875 -9.75 C 6.296875 -9.3125 6.507812 -8.875 6.6875 -8.4375 C 6.863281 -8.007812 7.007812 -7.628906 7.125 -7.296875 C 7.257812 -7.597656 7.445312 -7.972656 7.6875 -8.421875 C 7.925781 -8.867188 8.171875 -9.3125 8.421875 -9.75 L 9.796875 -12.234375 C 9.941406 -12.472656 10.039062 -12.703125 10.09375 -12.921875 C 10.15625 -13.148438 10.1875 -13.347656 10.1875 -13.515625 C 10.1875 -13.835938 10.070312 -14.078125 9.84375 -14.234375 C 9.625 -14.390625 9.304688 -14.46875 8.890625 -14.46875 L 8.265625 -14.46875 L 8.265625 -15.375 L 13.515625 -15.375 L 13.515625 -14.46875 L 13.265625 -14.46875 C 13.066406 -14.46875 12.875 -14.414062 12.6875 -14.3125 C 12.507812 -14.21875 12.320312 -14.046875 12.125 -13.796875 C 11.9375 -13.554688 11.71875 -13.222656 11.46875 -12.796875 L 7.859375 -6.421875 L 7.859375 -2.453125 C 7.859375 -2.003906 7.9375 -1.671875 8.09375 -1.453125 C 8.25 -1.234375 8.460938 -1.085938 8.734375 -1.015625 C 9.015625 -0.941406 9.3125 -0.90625 9.625 -0.90625 L 10.125 -0.90625 L 10.125 0 Z M 3.421875 0 "/></g></g></g><g fill="#000000" fill-opacity="1"><g transform="translate(146.93261, 23.901307)"><g/></g></g><g fill="#000000" fill-opacity="1"><g transform="translate(155.869606, 23.901307)"><g><path d="M 7.765625 0.21875 C 6.347656 0.21875 5.148438 -0.109375 4.171875 -0.765625 C 3.203125 -1.429688 2.46875 -2.351562 1.96875 -3.53125 C 1.476562 -4.71875 1.234375 -6.109375 1.234375 -7.703125 C 1.234375 -9.253906 1.492188 -10.625 2.015625 -11.8125 C 2.535156 -13 3.304688 -13.925781 4.328125 -14.59375 C 5.359375 -15.257812 6.628906 -15.59375 8.140625 -15.59375 C 9.117188 -15.59375 9.929688 -15.488281 10.578125 -15.28125 C 11.222656 -15.070312 11.703125 -14.78125 12.015625 -14.40625 C 12.328125 -14.039062 12.484375 -13.628906 12.484375 -13.171875 C 12.484375 -12.710938 12.300781 -12.347656 11.9375 -12.078125 C 11.582031 -11.804688 11.140625 -11.671875 10.609375 -11.671875 C 10.609375 -12.117188 10.53125 -12.550781 10.375 -12.96875 C 10.21875 -13.394531 9.957031 -13.75 9.59375 -14.03125 C 9.226562 -14.3125 8.726562 -14.453125 8.09375 -14.453125 C 7.019531 -14.453125 6.148438 -14.1875 5.484375 -13.65625 C 4.828125 -13.132812 4.351562 -12.367188 4.0625 -11.359375 C 3.769531 -10.359375 3.625 -9.140625 3.625 -7.703125 C 3.625 -6.429688 3.773438 -5.300781 4.078125 -4.3125 C 4.390625 -3.332031 4.875 -2.566406 5.53125 -2.015625 C 6.195312 -1.472656 7.050781 -1.203125 8.09375 -1.203125 C 8.800781 -1.203125 9.394531 -1.285156 9.875 -1.453125 C 10.363281 -1.628906 10.773438 -1.859375 11.109375 -2.140625 C 11.453125 -2.421875 11.75 -2.71875 12 -3.03125 C 12.113281 -2.957031 12.207031 -2.851562 12.28125 -2.71875 C 12.363281 -2.582031 12.40625 -2.410156 12.40625 -2.203125 C 12.40625 -1.921875 12.3125 -1.640625 12.125 -1.359375 C 11.9375 -1.085938 11.65625 -0.832031 11.28125 -0.59375 C 10.90625 -0.351562 10.425781 -0.15625 9.84375 0 C 9.269531 0.144531 8.578125 0.21875 7.765625 0.21875 Z M 7.765625 0.21875 "/></g></g></g><g fill="#000000" fill-opacity="1"><g transform="translate(172.427717, 23.901307)"><g><path d="M 0.8125 0 L 0.8125 -0.90625 L 1.09375 -0.90625 C 1.425781 -0.90625 1.722656 -0.941406 1.984375 -1.015625 C 2.253906 -1.085938 2.46875 -1.234375 2.625 -1.453125 C 2.78125 -1.671875 2.859375 -2.003906 2.859375 -2.453125 L 2.859375 -12.921875 C 2.859375 -13.378906 2.78125 -13.710938 2.625 -13.921875 C 2.46875 -14.140625 2.253906 -14.285156 1.984375 -14.359375 C 1.722656 -14.429688 1.425781 -14.46875 1.09375 -14.46875 L 0.8125 -14.46875 L 0.8125 -15.375 L 7.078125 -15.375 L 7.078125 -14.46875 L 6.796875 -14.46875 C 6.484375 -14.46875 6.191406 -14.429688 5.921875 -14.359375 C 5.648438 -14.285156 5.429688 -14.140625 5.265625 -13.921875 C 5.109375 -13.710938 5.03125 -13.378906 5.03125 -12.921875 L 5.03125 -2.453125 C 5.03125 -2.003906 5.109375 -1.671875 5.265625 -1.453125 C 5.429688 -1.234375 5.648438 -1.085938 5.921875 -1.015625 C 6.191406 -0.941406 6.484375 -0.90625 6.796875 -0.90625 L 7.078125 -0.90625 L 7.078125 0 Z M 0.8125 0 "/></g></g></g><g fill="#000000" fill-opacity="1"><g transform="translate(183.668263, 23.901307)"><g><path d="M 0.8125 0 L 0.8125 -0.90625 L 1.09375 -0.90625 C 1.414062 -0.90625 1.707031 -0.9375 1.96875 -1 C 2.238281 -1.0625 2.453125 -1.195312 2.609375 -1.40625 C 2.773438 -1.613281 2.859375 -1.925781 2.859375 -2.34375 L 2.859375 -13 C 2.859375 -13.4375 2.773438 -13.757812 2.609375 -13.96875 C 2.453125 -14.175781 2.238281 -14.3125 1.96875 -14.375 C 1.707031 -14.4375 1.414062 -14.46875 1.09375 -14.46875 L 0.8125 -14.46875 L 0.8125 -15.375 L 6.609375 -15.375 C 7.859375 -15.375 8.890625 -15.21875 9.703125 -14.90625 C 10.523438 -14.601562 11.132812 -14.144531 11.53125 -13.53125 C 11.9375 -12.925781 12.140625 -12.15625 12.140625 -11.21875 C 12.140625 -10.457031 11.984375 -9.8125 11.671875 -9.28125 C 11.359375 -8.757812 10.957031 -8.34375 10.46875 -8.03125 C 9.988281 -7.71875 9.492188 -7.472656 8.984375 -7.296875 L 11.921875 -2.625 C 12.296875 -2.050781 12.65625 -1.617188 13 -1.328125 C 13.34375 -1.046875 13.738281 -0.90625 14.1875 -0.90625 L 14.25 -0.90625 L 14.25 0 L 13.953125 0 C 13.066406 0 12.375 -0.046875 11.875 -0.140625 C 11.375 -0.234375 10.972656 -0.421875 10.671875 -0.703125 C 10.378906 -0.984375 10.066406 -1.394531 9.734375 -1.9375 L 6.828125 -6.78125 L 5.03125 -6.78125 L 5.03125 -2.34375 C 5.03125 -1.925781 5.113281 -1.613281 5.28125 -1.40625 C 5.445312 -1.195312 5.660156 -1.0625 5.921875 -1 C 6.191406 -0.9375 6.484375 -0.90625 6.796875 -0.90625 L 7.078125 -0.90625 L 7.078125 0 Z M 6.546875 -7.796875 C 7.804688 -7.796875 8.671875 -8.070312 9.140625 -8.625 C 9.609375 -9.1875 9.84375 -10.03125 9.84375 -11.15625 C 9.84375 -11.925781 9.734375 -12.546875 9.515625 -13.015625 C 9.296875 -13.484375 8.941406 -13.820312 8.453125 -14.03125 C 7.972656 -14.238281 7.320312 -14.34375 6.5 -14.34375 L 5.03125 -14.34375 L 5.03125 -7.796875 Z M 6.546875 -7.796875 "/></g></g></g><g fill="#000000" fill-opacity="1"><g transform="translate(201.130579, 23.901307)"><g><path d="M 7.765625 0.21875 C 6.347656 0.21875 5.148438 -0.109375 4.171875 -0.765625 C 3.203125 -1.429688 2.46875 -2.351562 1.96875 -3.53125 C 1.476562 -4.71875 1.234375 -6.109375 1.234375 -7.703125 C 1.234375 -9.253906 1.492188 -10.625 2.015625 -11.8125 C 2.535156 -13 3.304688 -13.925781 4.328125 -14.59375 C 5.359375 -15.257812 6.628906 -15.59375 8.140625 -15.59375 C 9.117188 -15.59375 9.929688 -15.488281 10.578125 -15.28125 C 11.222656 -15.070312 11.703125 -14.78125 12.015625 -14.40625 C 12.328125 -14.039062 12.484375 -13.628906 12.484375 -13.171875 C 12.484375 -12.710938 12.300781 -12.347656 11.9375 -12.078125 C 11.582031 -11.804688 11.140625 -11.671875 10.609375 -11.671875 C 10.609375 -12.117188 10.53125 -12.550781 10.375 -12.96875 C 10.21875 -13.394531 9.957031 -13.75 9.59375 -14.03125 C 9.226562 -14.3125 8.726562 -14.453125 8.09375 -14.453125 C 7.019531 -14.453125 6.148438 -14.1875 5.484375 -13.65625 C 4.828125 -13.132812 4.351562 -12.367188 4.0625 -11.359375 C 3.769531 -10.359375 3.625 -9.140625 3.625 -7.703125 C 3.625 -6.429688 3.773438 -5.300781 4.078125 -4.3125 C 4.390625 -3.332031 4.875 -2.566406 5.53125 -2.015625 C 6.195312 -1.472656 7.050781 -1.203125 8.09375 -1.203125 C 8.800781 -1.203125 9.394531 -1.285156 9.875 -1.453125 C 10.363281 -1.628906 10.773438 -1.859375 11.109375 -2.140625 C 11.453125 -2.421875 11.75 -2.71875 12 -3.03125 C 12.113281 -2.957031 12.207031 -2.851562 12.28125 -2.71875 C 12.363281 -2.582031 12.40625 -2.410156 12.40625 -2.203125 C 12.40625 -1.921875 12.3125 -1.640625 12.125 -1.359375 C 11.9375 -1.085938 11.65625 -0.832031 11.28125 -0.59375 C 10.90625 -0.351562 10.425781 -0.15625 9.84375 0 C 9.269531 0.144531 8.578125 0.21875 7.765625 0.21875 Z M 7.765625 0.21875 "/></g></g></g><g fill="#000000" fill-opacity="1"><g transform="translate(217.68869, 23.901307)"><g><path d="M 0.8125 0 L 0.8125 -0.90625 L 1.09375 -0.90625 C 1.425781 -0.90625 1.722656 -0.941406 1.984375 -1.015625 C 2.253906 -1.085938 2.46875 -1.234375 2.625 -1.453125 C 2.78125 -1.671875 2.859375 -2.003906 2.859375 -2.453125 L 2.859375 -12.921875 C 2.859375 -13.378906 2.78125 -13.710938 2.625 -13.921875 C 2.46875 -14.140625 2.253906 -14.285156 1.984375 -14.359375 C 1.722656 -14.429688 1.425781 -14.46875 1.09375 -14.46875 L 0.8125 -14.46875 L 0.8125 -15.375 L 7.078125 -15.375 L 7.078125 -14.46875 L 6.796875 -14.46875 C 6.484375 -14.46875 6.191406 -14.4375 5.921875 -14.375 C 5.660156 -14.3125 5.445312 -14.175781 5.28125 -13.96875 C 5.113281 -13.757812 5.03125 -13.4375 5.03125 -13 L 5.03125 -1.078125 L 9.28125 -1.078125 C 9.707031 -1.078125 10.050781 -1.171875 10.3125 -1.359375 C 10.582031 -1.554688 10.78125 -1.804688 10.90625 -2.109375 C 11.039062 -2.410156 11.128906 -2.710938 11.171875 -3.015625 L 11.390625 -4.625 L 12.515625 -4.625 L 12.359375 0 Z M 0.8125 0 "/></g></g></g><g fill="#000000" fill-opacity="1"><g transform="translate(234.440555, 23.901307)"><g><path d="M 0.8125 0 L 0.8125 -0.90625 L 1.09375 -0.90625 C 1.414062 -0.90625 1.707031 -0.9375 1.96875 -1 C 2.238281 -1.0625 2.453125 -1.195312 2.609375 -1.40625 C 2.773438 -1.613281 2.859375 -1.925781 2.859375 -2.34375 L 2.859375 -12.921875 C 2.859375 -13.378906 2.78125 -13.710938 2.625 -13.921875 C 2.46875 -14.140625 2.253906 -14.285156 1.984375 -14.359375 C 1.722656 -14.429688 1.425781 -14.46875 1.09375 -14.46875 L 0.8125 -14.46875 L 0.8125 -15.375 L 11.671875 -15.375 L 11.78125 -11.609375 L 10.65625 -11.609375 L 10.546875 -12.53125 C 10.515625 -12.84375 10.429688 -13.128906 10.296875 -13.390625 C 10.160156 -13.660156 9.957031 -13.878906 9.6875 -14.046875 C 9.425781 -14.210938 9.082031 -14.296875 8.65625 -14.296875 L 5.03125 -14.296875 L 5.03125 -8.5625 L 10.234375 -8.5625 L 10.234375 -7.515625 L 5.03125 -7.515625 L 5.03125 -1.078125 L 9.1875 -1.078125 C 9.65625 -1.078125 10.023438 -1.160156 10.296875 -1.328125 C 10.578125 -1.492188 10.789062 -1.707031 10.9375 -1.96875 C 11.09375 -2.238281 11.191406 -2.53125 11.234375 -2.84375 L 11.390625 -3.765625 L 12.515625 -3.765625 L 12.359375 0 Z M 0.8125 0 "/></g></g></g><g clip-path="url(#0ae874b7a0)"><g transform="matrix(1, 0, 0, 1, 56, 30)"><g clip-path="url(#65cd5a136f)"><g fill="#000000" fill-opacity="1"><g transform="translate(0.99229, 12.509701)"><g><path d="M 3.765625 0.109375 C 3.054688 0.109375 2.46875 -0.046875 2 -0.359375 C 1.53125 -0.679688 1.175781 -1.128906 0.9375 -1.703125 C 0.707031 -2.285156 0.59375 -2.972656 0.59375 -3.765625 C 0.59375 -4.566406 0.707031 -5.25 0.9375 -5.8125 C 1.175781 -6.382812 1.53125 -6.828125 2 -7.140625 C 2.476562 -7.453125 3.066406 -7.609375 3.765625 -7.609375 C 4.484375 -7.609375 5.070312 -7.453125 5.53125 -7.140625 C 5.988281 -6.828125 6.332031 -6.382812 6.5625 -5.8125 C 6.800781 -5.238281 6.921875 -4.554688 6.921875 -3.765625 C 6.921875 -2.984375 6.800781 -2.300781 6.5625 -1.71875 C 6.332031 -1.144531 5.984375 -0.695312 5.515625 -0.375 C 5.046875 -0.0507812 4.460938 0.109375 3.765625 0.109375 Z M 3.765625 -0.328125 C 4.335938 -0.328125 4.796875 -0.460938 5.140625 -0.734375 C 5.492188 -1.003906 5.75 -1.394531 5.90625 -1.90625 C 6.0625 -2.425781 6.140625 -3.046875 6.140625 -3.765625 C 6.140625 -4.484375 6.0625 -5.097656 5.90625 -5.609375 C 5.757812 -6.117188 5.507812 -6.507812 5.15625 -6.78125 C 4.8125 -7.050781 4.347656 -7.1875 3.765625 -7.1875 C 2.929688 -7.1875 2.320312 -6.882812 1.9375 -6.28125 C 1.550781 -5.675781 1.359375 -4.835938 1.359375 -3.765625 C 1.359375 -3.035156 1.441406 -2.414062 1.609375 -1.90625 C 1.785156 -1.394531 2.046875 -1.003906 2.390625 -0.734375 C 2.742188 -0.460938 3.203125 -0.328125 3.765625 -0.328125 Z M 3.765625 -0.328125 "/></g></g></g><g fill="#000000" fill-opacity="1"><g transform="translate(11.699706, 12.509701)"><g><path d="M 0.34375 0 L 0.34375 -0.34375 L 0.5 -0.34375 C 0.707031 -0.34375 0.867188 -0.359375 0.984375 -0.390625 C 1.109375 -0.421875 1.195312 -0.488281 1.25 -0.59375 C 1.300781 -0.695312 1.328125 -0.867188 1.328125 -1.109375 L 1.328125 -4.546875 C 1.328125 -4.773438 1.300781 -4.941406 1.25 -5.046875 C 1.195312 -5.148438 1.113281 -5.21875 1 -5.25 C 0.882812 -5.28125 0.738281 -5.296875 0.5625 -5.296875 L 0.40625 -5.296875 L 0.40625 -5.625 L 1.890625 -5.625 L 1.96875 -4.75 L 2.03125 -4.75 C 2.25 -5.132812 2.488281 -5.390625 2.75 -5.515625 C 3.019531 -5.648438 3.335938 -5.71875 3.703125 -5.71875 C 4.273438 -5.71875 4.707031 -5.554688 5 -5.234375 C 5.300781 -4.910156 5.453125 -4.398438 5.453125 -3.703125 L 5.453125 -1.109375 C 5.453125 -0.867188 5.472656 -0.695312 5.515625 -0.59375 C 5.566406 -0.488281 5.648438 -0.421875 5.765625 -0.390625 C 5.890625 -0.359375 6.050781 -0.34375 6.25 -0.34375 L 6.359375 -0.34375 L 6.359375 0 L 4.78125 0 L 4.78125 -3.71875 C 4.78125 -4.175781 4.679688 -4.539062 4.484375 -4.8125 C 4.296875 -5.09375 3.96875 -5.234375 3.5 -5.234375 C 3.113281 -5.234375 2.8125 -5.144531 2.59375 -4.96875 C 2.382812 -4.800781 2.234375 -4.578125 2.140625 -4.296875 C 2.046875 -4.023438 2 -3.734375 2 -3.421875 L 2 -1.078125 C 2 -0.847656 2.023438 -0.679688 2.078125 -0.578125 C 2.140625 -0.484375 2.226562 -0.421875 2.34375 -0.390625 C 2.46875 -0.359375 2.628906 -0.34375 2.828125 -0.34375 L 2.9375 -0.34375 L 2.9375 0 Z M 0.34375 0 "/></g></g></g><g fill="#000000" fill-opacity="1"><g transform="translate(21.513962, 12.509701)"><g><path d="M 2.90625 0.109375 C 2.195312 0.109375 1.640625 -0.140625 1.234375 -0.640625 C 0.828125 -1.140625 0.625 -1.847656 0.625 -2.765625 C 0.625 -3.742188 0.8125 -4.476562 1.1875 -4.96875 C 1.570312 -5.46875 2.113281 -5.71875 2.8125 -5.71875 C 3.445312 -5.71875 3.941406 -5.492188 4.296875 -5.046875 C 4.660156 -4.609375 4.84375 -3.972656 4.84375 -3.140625 L 4.84375 -2.8125 L 1.3125 -2.8125 C 1.320312 -1.976562 1.472656 -1.363281 1.765625 -0.96875 C 2.066406 -0.570312 2.476562 -0.375 3 -0.375 C 3.375 -0.375 3.6875 -0.453125 3.9375 -0.609375 C 4.1875 -0.773438 4.375 -0.972656 4.5 -1.203125 C 4.539062 -1.179688 4.578125 -1.144531 4.609375 -1.09375 C 4.640625 -1.039062 4.65625 -0.976562 4.65625 -0.90625 C 4.65625 -0.78125 4.59375 -0.632812 4.46875 -0.46875 C 4.34375 -0.3125 4.148438 -0.175781 3.890625 -0.0625 C 3.628906 0.0507812 3.300781 0.109375 2.90625 0.109375 Z M 4.140625 -3.234375 C 4.140625 -3.847656 4.03125 -4.34375 3.8125 -4.71875 C 3.601562 -5.09375 3.265625 -5.28125 2.796875 -5.28125 C 2.316406 -5.28125 1.960938 -5.097656 1.734375 -4.734375 C 1.503906 -4.378906 1.367188 -3.878906 1.328125 -3.234375 Z M 4.140625 -3.234375 "/></g></g></g><g fill="#000000" fill-opacity="1"><g transform="translate(30.088293, 12.509701)"><g/></g></g><g fill="#000000" fill-opacity="1"><g transform="translate(35.993647, 12.509701)"><g><path d="M 2.65625 0.109375 C 2.320312 0.109375 2.023438 0.0703125 1.765625 0 C 1.515625 -0.0703125 1.300781 -0.175781 1.125 -0.3125 C 0.957031 -0.457031 0.832031 -0.613281 0.75 -0.78125 C 0.664062 -0.957031 0.625 -1.148438 0.625 -1.359375 C 0.625 -1.460938 0.644531 -1.554688 0.6875 -1.640625 C 0.726562 -1.734375 0.785156 -1.800781 0.859375 -1.84375 C 0.929688 -1.894531 1.023438 -1.921875 1.140625 -1.921875 C 1.148438 -1.609375 1.210938 -1.328125 1.328125 -1.078125 C 1.441406 -0.835938 1.613281 -0.644531 1.84375 -0.5 C 2.070312 -0.363281 2.359375 -0.296875 2.703125 -0.296875 C 3.203125 -0.296875 3.582031 -0.425781 3.84375 -0.6875 C 4.101562 -0.945312 4.234375 -1.300781 4.234375 -1.75 C 4.234375 -2.019531 4.179688 -2.25 4.078125 -2.4375 C 3.972656 -2.632812 3.796875 -2.816406 3.546875 -2.984375 C 3.304688 -3.160156 2.984375 -3.34375 2.578125 -3.53125 C 2.171875 -3.726562 1.835938 -3.925781 1.578125 -4.125 C 1.316406 -4.332031 1.125 -4.566406 1 -4.828125 C 0.875 -5.097656 0.8125 -5.414062 0.8125 -5.78125 C 0.8125 -6.144531 0.898438 -6.460938 1.078125 -6.734375 C 1.253906 -7.003906 1.5 -7.21875 1.8125 -7.375 C 2.125 -7.53125 2.484375 -7.609375 2.890625 -7.609375 C 3.265625 -7.609375 3.585938 -7.550781 3.859375 -7.4375 C 4.128906 -7.332031 4.335938 -7.191406 4.484375 -7.015625 C 4.640625 -6.835938 4.71875 -6.644531 4.71875 -6.4375 C 4.71875 -6.25 4.664062 -6.109375 4.5625 -6.015625 C 4.46875 -5.921875 4.332031 -5.875 4.15625 -5.875 C 4.15625 -6.132812 4.109375 -6.363281 4.015625 -6.5625 C 3.929688 -6.757812 3.789062 -6.910156 3.59375 -7.015625 C 3.40625 -7.128906 3.160156 -7.1875 2.859375 -7.1875 C 2.410156 -7.1875 2.066406 -7.0625 1.828125 -6.8125 C 1.597656 -6.570312 1.484375 -6.25 1.484375 -5.84375 C 1.484375 -5.5625 1.535156 -5.320312 1.640625 -5.125 C 1.742188 -4.925781 1.90625 -4.75 2.125 -4.59375 C 2.34375 -4.445312 2.632812 -4.285156 3 -4.109375 C 3.363281 -3.929688 3.6875 -3.742188 3.96875 -3.546875 C 4.257812 -3.359375 4.488281 -3.132812 4.65625 -2.875 C 4.820312 -2.613281 4.90625 -2.289062 4.90625 -1.90625 C 4.90625 -1.5 4.816406 -1.144531 4.640625 -0.84375 C 4.460938 -0.550781 4.207031 -0.316406 3.875 -0.140625 C 3.539062 0.0234375 3.132812 0.109375 2.65625 0.109375 Z M 2.65625 0.109375 "/></g></g></g><g fill="#000000" fill-opacity="1"><g transform="translate(44.620515, 12.509701)"><g><path d="M 2.34375 0.109375 C 1.863281 0.109375 1.519531 -0.0078125 1.3125 -0.25 C 1.101562 -0.5 1 -0.914062 1 -1.5 L 1 -5.1875 L 0.1875 -5.1875 L 0.1875 -5.5 C 0.320312 -5.5 0.457031 -5.523438 0.59375 -5.578125 C 0.726562 -5.628906 0.84375 -5.695312 0.9375 -5.78125 C 1.03125 -5.882812 1.109375 -6.019531 1.171875 -6.1875 C 1.234375 -6.363281 1.28125 -6.601562 1.3125 -6.90625 L 1.671875 -6.90625 L 1.671875 -5.625 L 3.03125 -5.625 L 3.03125 -5.1875 L 1.671875 -5.1875 L 1.671875 -1.4375 C 1.671875 -1.039062 1.738281 -0.753906 1.875 -0.578125 C 2.007812 -0.398438 2.210938 -0.3125 2.484375 -0.3125 C 2.597656 -0.3125 2.703125 -0.316406 2.796875 -0.328125 C 2.898438 -0.335938 3.007812 -0.351562 3.125 -0.375 L 3.125 -0.015625 C 3.019531 0.0234375 2.894531 0.0546875 2.75 0.078125 C 2.613281 0.0976562 2.476562 0.109375 2.34375 0.109375 Z M 2.34375 0.109375 "/></g></g></g><g fill="#000000" fill-opacity="1"><g transform="translate(51.177351, 12.509701)"><g><path d="M 2.90625 0.109375 C 2.195312 0.109375 1.640625 -0.140625 1.234375 -0.640625 C 0.828125 -1.140625 0.625 -1.847656 0.625 -2.765625 C 0.625 -3.742188 0.8125 -4.476562 1.1875 -4.96875 C 1.570312 -5.46875 2.113281 -5.71875 2.8125 -5.71875 C 3.445312 -5.71875 3.941406 -5.492188 4.296875 -5.046875 C 4.660156 -4.609375 4.84375 -3.972656 4.84375 -3.140625 L 4.84375 -2.8125 L 1.3125 -2.8125 C 1.320312 -1.976562 1.472656 -1.363281 1.765625 -0.96875 C 2.066406 -0.570312 2.476562 -0.375 3 -0.375 C 3.375 -0.375 3.6875 -0.453125 3.9375 -0.609375 C 4.1875 -0.773438 4.375 -0.972656 4.5 -1.203125 C 4.539062 -1.179688 4.578125 -1.144531 4.609375 -1.09375 C 4.640625 -1.039062 4.65625 -0.976562 4.65625 -0.90625 C 4.65625 -0.78125 4.59375 -0.632812 4.46875 -0.46875 C 4.34375 -0.3125 4.148438 -0.175781 3.890625 -0.0625 C 3.628906 0.0507812 3.300781 0.109375 2.90625 0.109375 Z M 4.140625 -3.234375 C 4.140625 -3.847656 4.03125 -4.34375 3.8125 -4.71875 C 3.601562 -5.09375 3.265625 -5.28125 2.796875 -5.28125 C 2.316406 -5.28125 1.960938 -5.097656 1.734375 -4.734375 C 1.503906 -4.378906 1.367188 -3.878906 1.328125 -3.234375 Z M 4.140625 -3.234375 "/></g></g></g><g fill="#000000" fill-opacity="1"><g transform="translate(59.751682, 12.509701)"><g><path d="M 0.21875 2.515625 L 0.21875 2.1875 L 0.40625 2.1875 C 0.59375 2.1875 0.742188 2.171875 0.859375 2.140625 C 0.984375 2.109375 1.070312 2.035156 1.125 1.921875 C 1.175781 1.804688 1.203125 1.628906 1.203125 1.390625 L 1.203125 -4.546875 C 1.203125 -4.773438 1.171875 -4.941406 1.109375 -5.046875 C 1.054688 -5.148438 0.96875 -5.21875 0.84375 -5.25 C 0.71875 -5.28125 0.5625 -5.296875 0.375 -5.296875 L 0.078125 -5.296875 L 0.078125 -5.625 L 1.78125 -5.625 L 1.84375 -4.625 L 1.890625 -4.625 C 2.023438 -4.945312 2.222656 -5.210938 2.484375 -5.421875 C 2.753906 -5.628906 3.101562 -5.734375 3.53125 -5.734375 C 4.238281 -5.734375 4.765625 -5.5 5.109375 -5.03125 C 5.453125 -4.570312 5.625 -3.847656 5.625 -2.859375 C 5.625 -1.835938 5.441406 -1.085938 5.078125 -0.609375 C 4.710938 -0.128906 4.203125 0.109375 3.546875 0.109375 C 3.117188 0.109375 2.769531 0.015625 2.5 -0.171875 C 2.226562 -0.367188 2.019531 -0.632812 1.875 -0.96875 L 1.84375 -0.96875 C 1.84375 -0.820312 1.847656 -0.640625 1.859375 -0.421875 C 1.867188 -0.210938 1.875 0.015625 1.875 0.265625 L 1.875 1.421875 C 1.875 1.660156 1.898438 1.832031 1.953125 1.9375 C 2.015625 2.039062 2.101562 2.109375 2.21875 2.140625 C 2.332031 2.171875 2.484375 2.1875 2.671875 2.1875 L 2.875 2.1875 L 2.875 2.515625 Z M 3.46875 -0.375 C 3.957031 -0.375 4.328125 -0.585938 4.578125 -1.015625 C 4.828125 -1.441406 4.953125 -2.050781 4.953125 -2.84375 C 4.953125 -3.644531 4.835938 -4.242188 4.609375 -4.640625 C 4.378906 -5.046875 3.988281 -5.25 3.4375 -5.25 C 3.050781 -5.25 2.742188 -5.15625 2.515625 -4.96875 C 2.285156 -4.78125 2.117188 -4.503906 2.015625 -4.140625 C 1.921875 -3.785156 1.875 -3.363281 1.875 -2.875 C 1.875 -2.351562 1.921875 -1.90625 2.015625 -1.53125 C 2.117188 -1.15625 2.285156 -0.867188 2.515625 -0.671875 C 2.753906 -0.472656 3.070312 -0.375 3.46875 -0.375 Z M 3.46875 -0.375 "/></g></g></g><g fill="#000000" fill-opacity="1"><g transform="translate(69.187654, 12.509701)"><g/></g></g><g fill="#000000" fill-opacity="1"><g transform="translate(75.093008, 12.509701)"><g><path d="M 2.65625 0.109375 C 2.320312 0.109375 2.023438 0.0703125 1.765625 0 C 1.515625 -0.0703125 1.300781 -0.175781 1.125 -0.3125 C 0.957031 -0.457031 0.832031 -0.613281 0.75 -0.78125 C 0.664062 -0.957031 0.625 -1.148438 0.625 -1.359375 C 0.625 -1.460938 0.644531 -1.554688 0.6875 -1.640625 C 0.726562 -1.734375 0.785156 -1.800781 0.859375 -1.84375 C 0.929688 -1.894531 1.023438 -1.921875 1.140625 -1.921875 C 1.148438 -1.609375 1.210938 -1.328125 1.328125 -1.078125 C 1.441406 -0.835938 1.613281 -0.644531 1.84375 -0.5 C 2.070312 -0.363281 2.359375 -0.296875 2.703125 -0.296875 C 3.203125 -0.296875 3.582031 -0.425781 3.84375 -0.6875 C 4.101562 -0.945312 4.234375 -1.300781 4.234375 -1.75 C 4.234375 -2.019531 4.179688 -2.25 4.078125 -2.4375 C 3.972656 -2.632812 3.796875 -2.816406 3.546875 -2.984375 C 3.304688 -3.160156 2.984375 -3.34375 2.578125 -3.53125 C 2.171875 -3.726562 1.835938 -3.925781 1.578125 -4.125 C 1.316406 -4.332031 1.125 -4.566406 1 -4.828125 C 0.875 -5.097656 0.8125 -5.414062 0.8125 -5.78125 C 0.8125 -6.144531 0.898438 -6.460938 1.078125 -6.734375 C 1.253906 -7.003906 1.5 -7.21875 1.8125 -7.375 C 2.125 -7.53125 2.484375 -7.609375 2.890625 -7.609375 C 3.265625 -7.609375 3.585938 -7.550781 3.859375 -7.4375 C 4.128906 -7.332031 4.335938 -7.191406 4.484375 -7.015625 C 4.640625 -6.835938 4.71875 -6.644531 4.71875 -6.4375 C 4.71875 -6.25 4.664062 -6.109375 4.5625 -6.015625 C 4.46875 -5.921875 4.332031 -5.875 4.15625 -5.875 C 4.15625 -6.132812 4.109375 -6.363281 4.015625 -6.5625 C 3.929688 -6.757812 3.789062 -6.910156 3.59375 -7.015625 C 3.40625 -7.128906 3.160156 -7.1875 2.859375 -7.1875 C 2.410156 -7.1875 2.066406 -7.0625 1.828125 -6.8125 C 1.597656 -6.570312 1.484375 -6.25 1.484375 -5.84375 C 1.484375 -5.5625 1.535156 -5.320312 1.640625 -5.125 C 1.742188 -4.925781 1.90625 -4.75 2.125 -4.59375 C 2.34375 -4.445312 2.632812 -4.285156 3 -4.109375 C 3.363281 -3.929688 3.6875 -3.742188 3.96875 -3.546875 C 4.257812 -3.359375 4.488281 -3.132812 4.65625 -2.875 C 4.820312 -2.613281 4.90625 -2.289062 4.90625 -1.90625 C 4.90625 -1.5 4.816406 -1.144531 4.640625 -0.84375 C 4.460938 -0.550781 4.207031 -0.316406 3.875 -0.140625 C 3.539062 0.0234375 3.132812 0.109375 2.65625 0.109375 Z M 2.65625 0.109375 "/></g></g></g><g fill="#000000" fill-opacity="1"><g transform="translate(83.719876, 12.509701)"><g><path d="M 2.90625 0.109375 C 2.195312 0.109375 1.640625 -0.128906 1.234375 -0.609375 C 0.828125 -1.085938 0.625 -1.820312 0.625 -2.8125 C 0.625 -3.789062 0.820312 -4.519531 1.21875 -5 C 1.613281 -5.476562 2.191406 -5.71875 2.953125 -5.71875 C 3.660156 -5.71875 4.210938 -5.484375 4.609375 -5.015625 C 5.015625 -4.546875 5.21875 -3.8125 5.21875 -2.8125 C 5.21875 -1.820312 5.019531 -1.085938 4.625 -0.609375 C 4.238281 -0.128906 3.664062 0.109375 2.90625 0.109375 Z M 2.921875 -0.3125 C 3.304688 -0.3125 3.617188 -0.410156 3.859375 -0.609375 C 4.097656 -0.804688 4.269531 -1.09375 4.375 -1.46875 C 4.476562 -1.84375 4.53125 -2.289062 4.53125 -2.8125 C 4.53125 -3.644531 4.40625 -4.265625 4.15625 -4.671875 C 3.90625 -5.085938 3.5 -5.296875 2.9375 -5.296875 C 2.351562 -5.296875 1.9375 -5.085938 1.6875 -4.671875 C 1.4375 -4.253906 1.3125 -3.632812 1.3125 -2.8125 C 1.3125 -2.007812 1.4375 -1.390625 1.6875 -0.953125 C 1.9375 -0.523438 2.347656 -0.3125 2.921875 -0.3125 Z M 2.921875 -0.3125 "/></g></g></g><g fill="#000000" fill-opacity="1"><g transform="translate(92.73553, 12.509701)"><g><path d="M 0.109375 0 L 0.109375 -0.34375 L 0.328125 -0.34375 C 0.523438 -0.34375 0.6875 -0.359375 0.8125 -0.390625 C 0.9375 -0.421875 1.023438 -0.488281 1.078125 -0.59375 C 1.140625 -0.695312 1.171875 -0.867188 1.171875 -1.109375 L 1.171875 -6.875 C 1.171875 -7.113281 1.140625 -7.285156 1.078125 -7.390625 C 1.023438 -7.492188 0.9375 -7.5625 0.8125 -7.59375 C 0.695312 -7.625 0.550781 -7.640625 0.375 -7.640625 L 0.109375 -7.640625 L 0.109375 -7.984375 L 1.84375 -7.984375 L 1.84375 -1.109375 C 1.84375 -0.867188 1.867188 -0.695312 1.921875 -0.59375 C 1.972656 -0.488281 2.0625 -0.421875 2.1875 -0.390625 C 2.3125 -0.359375 2.472656 -0.34375 2.671875 -0.34375 L 2.890625 -0.34375 L 2.890625 0 Z M 0.109375 0 "/></g></g></g><g fill="#000000" fill-opacity="1"><g transform="translate(98.90358, 12.509701)"><g><path d="M 2.90625 0.109375 C 2.34375 0.109375 1.914062 -0.0507812 1.625 -0.375 C 1.332031 -0.707031 1.1875 -1.226562 1.1875 -1.9375 L 1.1875 -4.546875 C 1.1875 -4.773438 1.15625 -4.941406 1.09375 -5.046875 C 1.039062 -5.148438 0.953125 -5.21875 0.828125 -5.25 C 0.710938 -5.28125 0.550781 -5.296875 0.34375 -5.296875 L 0.203125 -5.296875 L 0.203125 -5.625 L 1.859375 -5.625 L 1.859375 -1.953125 C 1.859375 -1.640625 1.890625 -1.363281 1.953125 -1.125 C 2.023438 -0.882812 2.148438 -0.695312 2.328125 -0.5625 C 2.515625 -0.4375 2.769531 -0.375 3.09375 -0.375 C 3.445312 -0.375 3.734375 -0.457031 3.953125 -0.625 C 4.179688 -0.789062 4.347656 -1.007812 4.453125 -1.28125 C 4.566406 -1.550781 4.625 -1.859375 4.625 -2.203125 L 4.625 -4.53125 C 4.625 -4.757812 4.597656 -4.925781 4.546875 -5.03125 C 4.492188 -5.144531 4.40625 -5.21875 4.28125 -5.25 C 4.15625 -5.28125 3.992188 -5.296875 3.796875 -5.296875 L 3.6875 -5.296875 L 3.6875 -5.625 L 5.296875 -5.625 L 5.296875 -1.078125 C 5.296875 -0.859375 5.320312 -0.695312 5.375 -0.59375 C 5.425781 -0.488281 5.507812 -0.421875 5.625 -0.390625 C 5.75 -0.359375 5.898438 -0.34375 6.078125 -0.34375 L 6.265625 -0.34375 L 6.265625 0 L 4.75 0 L 4.671875 -0.90625 L 4.625 -0.90625 C 4.4375 -0.5625 4.203125 -0.304688 3.921875 -0.140625 C 3.640625 0.0234375 3.300781 0.109375 2.90625 0.109375 Z M 2.90625 0.109375 "/></g></g></g><g fill="#000000" fill-opacity="1"><g transform="translate(108.570715, 12.509701)"><g><path d="M 2.34375 0.109375 C 1.863281 0.109375 1.519531 -0.0078125 1.3125 -0.25 C 1.101562 -0.5 1 -0.914062 1 -1.5 L 1 -5.1875 L 0.1875 -5.1875 L 0.1875 -5.5 C 0.320312 -5.5 0.457031 -5.523438 0.59375 -5.578125 C 0.726562 -5.628906 0.84375 -5.695312 0.9375 -5.78125 C 1.03125 -5.882812 1.109375 -6.019531 1.171875 -6.1875 C 1.234375 -6.363281 1.28125 -6.601562 1.3125 -6.90625 L 1.671875 -6.90625 L 1.671875 -5.625 L 3.03125 -5.625 L 3.03125 -5.1875 L 1.671875 -5.1875 L 1.671875 -1.4375 C 1.671875 -1.039062 1.738281 -0.753906 1.875 -0.578125 C 2.007812 -0.398438 2.210938 -0.3125 2.484375 -0.3125 C 2.597656 -0.3125 2.703125 -0.316406 2.796875 -0.328125 C 2.898438 -0.335938 3.007812 -0.351562 3.125 -0.375 L 3.125 -0.015625 C 3.019531 0.0234375 2.894531 0.0546875 2.75 0.078125 C 2.613281 0.0976562 2.476562 0.109375 2.34375 0.109375 Z M 2.34375 0.109375 "/></g></g></g><g fill="#000000" fill-opacity="1"><g transform="translate(115.127551, 12.509701)"><g><path d="M 0.28125 0 L 0.28125 -0.34375 L 0.5 -0.34375 C 0.695312 -0.34375 0.859375 -0.359375 0.984375 -0.390625 C 1.109375 -0.421875 1.195312 -0.484375 1.25 -0.578125 C 1.300781 -0.679688 1.328125 -0.847656 1.328125 -1.078125 L 1.328125 -4.53125 C 1.328125 -4.757812 1.300781 -4.925781 1.25 -5.03125 C 1.195312 -5.144531 1.109375 -5.21875 0.984375 -5.25 C 0.867188 -5.28125 0.722656 -5.296875 0.546875 -5.296875 L 0.4375 -5.296875 L 0.4375 -5.625 L 2 -5.625 L 2 -1.109375 C 2 -0.867188 2.023438 -0.695312 2.078125 -0.59375 C 2.140625 -0.488281 2.234375 -0.421875 2.359375 -0.390625 C 2.484375 -0.359375 2.644531 -0.34375 2.84375 -0.34375 L 3.0625 -0.34375 L 3.0625 0 Z M 1.625 -6.78125 C 1.5 -6.78125 1.394531 -6.820312 1.3125 -6.90625 C 1.226562 -6.988281 1.1875 -7.128906 1.1875 -7.328125 C 1.1875 -7.535156 1.226562 -7.675781 1.3125 -7.75 C 1.394531 -7.832031 1.5 -7.875 1.625 -7.875 C 1.75 -7.875 1.851562 -7.832031 1.9375 -7.75 C 2.019531 -7.675781 2.0625 -7.535156 2.0625 -7.328125 C 2.0625 -7.128906 2.019531 -6.988281 1.9375 -6.90625 C 1.851562 -6.820312 1.75 -6.78125 1.625 -6.78125 Z M 1.625 -6.78125 "/></g></g></g><g fill="#000000" fill-opacity="1"><g transform="translate(121.474227, 12.509701)"><g><path d="M 2.90625 0.109375 C 2.195312 0.109375 1.640625 -0.128906 1.234375 -0.609375 C 0.828125 -1.085938 0.625 -1.820312 0.625 -2.8125 C 0.625 -3.789062 0.820312 -4.519531 1.21875 -5 C 1.613281 -5.476562 2.191406 -5.71875 2.953125 -5.71875 C 3.660156 -5.71875 4.210938 -5.484375 4.609375 -5.015625 C 5.015625 -4.546875 5.21875 -3.8125 5.21875 -2.8125 C 5.21875 -1.820312 5.019531 -1.085938 4.625 -0.609375 C 4.238281 -0.128906 3.664062 0.109375 2.90625 0.109375 Z M 2.921875 -0.3125 C 3.304688 -0.3125 3.617188 -0.410156 3.859375 -0.609375 C 4.097656 -0.804688 4.269531 -1.09375 4.375 -1.46875 C 4.476562 -1.84375 4.53125 -2.289062 4.53125 -2.8125 C 4.53125 -3.644531 4.40625 -4.265625 4.15625 -4.671875 C 3.90625 -5.085938 3.5 -5.296875 2.9375 -5.296875 C 2.351562 -5.296875 1.9375 -5.085938 1.6875 -4.671875 C 1.4375 -4.253906 1.3125 -3.632812 1.3125 -2.8125 C 1.3125 -2.007812 1.4375 -1.390625 1.6875 -0.953125 C 1.9375 -0.523438 2.347656 -0.3125 2.921875 -0.3125 Z M 2.921875 -0.3125 "/></g></g></g><g fill="#000000" fill-opacity="1"><g transform="translate(130.489881, 12.509701)"><g><path d="M 0.34375 0 L 0.34375 -0.34375 L 0.5 -0.34375 C 0.707031 -0.34375 0.867188 -0.359375 0.984375 -0.390625 C 1.109375 -0.421875 1.195312 -0.488281 1.25 -0.59375 C 1.300781 -0.695312 1.328125 -0.867188 1.328125 -1.109375 L 1.328125 -4.546875 C 1.328125 -4.773438 1.300781 -4.941406 1.25 -5.046875 C 1.195312 -5.148438 1.113281 -5.21875 1 -5.25 C 0.882812 -5.28125 0.738281 -5.296875 0.5625 -5.296875 L 0.40625 -5.296875 L 0.40625 -5.625 L 1.890625 -5.625 L 1.96875 -4.75 L 2.03125 -4.75 C 2.25 -5.132812 2.488281 -5.390625 2.75 -5.515625 C 3.019531 -5.648438 3.335938 -5.71875 3.703125 -5.71875 C 4.273438 -5.71875 4.707031 -5.554688 5 -5.234375 C 5.300781 -4.910156 5.453125 -4.398438 5.453125 -3.703125 L 5.453125 -1.109375 C 5.453125 -0.867188 5.472656 -0.695312 5.515625 -0.59375 C 5.566406 -0.488281 5.648438 -0.421875 5.765625 -0.390625 C 5.890625 -0.359375 6.050781 -0.34375 6.25 -0.34375 L 6.359375 -0.34375 L 6.359375 0 L 4.78125 0 L 4.78125 -3.71875 C 4.78125 -4.175781 4.679688 -4.539062 4.484375 -4.8125 C 4.296875 -5.09375 3.96875 -5.234375 3.5 -5.234375 C 3.113281 -5.234375 2.8125 -5.144531 2.59375 -4.96875 C 2.382812 -4.800781 2.234375 -4.578125 2.140625 -4.296875 C 2.046875 -4.023438 2 -3.734375 2 -3.421875 L 2 -1.078125 C 2 -0.847656 2.023438 -0.679688 2.078125 -0.578125 C 2.140625 -0.484375 2.226562 -0.421875 2.34375 -0.390625 C 2.46875 -0.359375 2.628906 -0.34375 2.828125 -0.34375 L 2.9375 -0.34375 L 2.9375 0 Z M 0.34375 0 "/></g></g></g></g></g></g></g></g><g clip-path="url(#4e9b930b14)"><path fill="#5e17eb" d="M 129.050781 241.316406 C 134.898438 237.933594 138.949219 236.265625 144.1875 234.703125 C 149.242188 233.195312 161.046875 233.871094 160.824219 231.546875 C 160.648438 229.710938 154.269531 228.761719 143.5625 230.289062 C 135.183594 231.488281 165.242188 220.652344 163.878906 217.574219 C 162.539062 214.542969 141.960938 225.203125 140.515625 224.453125 C 138.0625 223.175781 161.050781 208.132812 159.695312 205.910156 C 157.816406 202.835938 137.890625 219.386719 136.144531 219.289062 C 134.398438 219.191406 152.261719 203.988281 150.300781 201.890625 C 147.617188 199.023438 137.601562 211.417969 132.195312 216.203125 C 126.789062 220.984375 123.332031 216.546875 125.511719 207.34375 C 127.054688 200.832031 121.550781 195.558594 119.5625 207.609375 C 118.9375 211.40625 117.769531 215.0625 117.011719 222.246094 C 116.125 230.714844 114.375 234.433594 105.09375 245.21875 L 87.273438 155.816406 C 143.410156 150.230469 187.503906 179.535156 187.503906 179.535156 L 187.503906 266.652344 C 164.078125 248.859375 138.316406 247.542969 120.597656 249.65625 C 124.566406 245.273438 127.679688 242.109375 129.050781 241.316406 " fill-opacity="1" fill-rule="nonzero"/></g><g clip-path="url(#f58b834e16)"><path fill="#5e17eb" d="M 245.957031 241.316406 C 240.109375 237.933594 236.058594 236.265625 230.820312 234.703125 C 225.765625 233.195312 213.960938 233.871094 214.183594 231.550781 C 214.359375 229.710938 220.734375 228.761719 231.445312 230.289062 C 239.824219 231.488281 209.765625 220.652344 211.128906 217.578125 C 212.46875 214.542969 233.046875 225.203125 234.492188 224.453125 C 236.945312 223.175781 213.957031 208.132812 215.3125 205.910156 C 217.191406 202.835938 237.117188 219.386719 238.863281 219.289062 C 240.609375 219.191406 222.746094 203.988281 224.710938 201.890625 C 227.390625 199.023438 237.40625 211.417969 242.8125 216.203125 C 248.222656 220.984375 251.675781 216.546875 249.496094 207.347656 C 247.957031 200.832031 253.460938 195.558594 255.445312 207.609375 C 256.070312 211.40625 257.238281 215.0625 257.996094 222.25 C 258.882812 230.714844 260.628906 234.433594 269.914062 245.21875 L 287.734375 155.816406 C 231.59375 150.234375 187.503906 179.535156 187.503906 179.535156 L 187.503906 266.652344 C 210.933594 248.859375 236.691406 247.542969 254.410156 249.660156 C 250.441406 245.273438 247.328125 242.109375 245.957031 241.316406 " fill-opacity="1" fill-rule="nonzero"/></g><path fill="#5e17eb" d="M 191.542969 163.898438 L 183.464844 163.898438 L 183.464844 155.820312 L 191.542969 155.820312 L 191.542969 163.898438 " fill-opacity="1" fill-rule="nonzero"/><path fill="#5e17eb" d="M 168.304688 140.167969 L 160.222656 140.167969 L 160.222656 132.085938 L 168.304688 132.085938 L 168.304688 140.167969 " fill-opacity="1" fill-rule="nonzero"/><path fill="#5e17eb" d="M 204.984375 152.109375 L 195.253906 152.109375 L 195.253906 142.378906 L 204.984375 142.378906 L 204.984375 152.109375 " fill-opacity="1" fill-rule="nonzero"/><path fill="#5e17eb" d="M 231.601562 141.347656 L 221.871094 141.347656 L 221.871094 131.617188 L 231.601562 131.617188 L 231.601562 141.347656 " fill-opacity="1" fill-rule="nonzero"/><path fill="#5e17eb" d="M 188.332031 113.5625 L 178.597656 113.5625 L 178.597656 103.832031 L 188.332031 103.832031 L 188.332031 113.5625 " fill-opacity="1" fill-rule="nonzero"/><path fill="#5e17eb" d="M 209.851562 79.742188 L 200.121094 79.742188 L 200.121094 70.011719 L 209.851562 70.011719 L 209.851562 79.742188 " fill-opacity="1" fill-rule="nonzero"/><path fill="#5e17eb" d="M 161.449219 125.164062 L 151.71875 125.164062 L 151.71875 115.429688 L 161.449219 115.429688 L 161.449219 125.164062 " fill-opacity="1" fill-rule="nonzero"/><path fill="#5e17eb" d="M 208.238281 132.085938 L 196.449219 132.085938 L 196.449219 120.296875 L 208.238281 120.296875 L 208.238281 132.085938 " fill-opacity="1" fill-rule="nonzero"/><path fill="#5e17eb" d="M 144.554688 146.0625 L 132.761719 146.0625 L 132.761719 134.273438 L 144.554688 134.273438 L 144.554688 146.0625 " fill-opacity="1" fill-rule="nonzero"/><path fill="#5e17eb" d="M 187.503906 143.875 L 175.714844 143.875 L 175.714844 132.085938 L 187.503906 132.085938 L 187.503906 143.875 " fill-opacity="1" fill-rule="nonzero"/><path fill="#5e17eb" d="M 182.636719 91.535156 L 170.847656 91.535156 L 170.847656 79.746094 L 182.636719 79.746094 L 182.636719 91.535156 " fill-opacity="1" fill-rule="nonzero"/><path fill="#5e17eb" d="M 170.160156 161.003906 L 158.371094 161.003906 L 158.371094 149.214844 L 170.160156 149.214844 L 170.160156 161.003906 " fill-opacity="1" fill-rule="nonzero"/><path fill="#5e17eb" d="M 226.734375 120.296875 L 212.40625 120.296875 L 212.40625 105.964844 L 226.734375 105.964844 L 226.734375 120.296875 " fill-opacity="1" fill-rule="nonzero"/><path fill="#5e17eb" d="M 260.28125 143.648438 L 245.949219 143.648438 L 245.949219 129.316406 L 260.28125 129.316406 L 260.28125 143.648438 " fill-opacity="1" fill-rule="nonzero"/><path fill="#5e17eb" d="M 151.71875 103.832031 L 137.386719 103.832031 L 137.386719 89.503906 L 151.71875 89.503906 L 151.71875 103.832031 " fill-opacity="1" fill-rule="nonzero"/></svg>